<svg width="1024" height="1024" viewBox="0 0 1024 1024" fill="none" xmlns="http://www.w3.org/2000/svg">
  <defs>
    <linearGradient id="bg" x1="96" y1="928" x2="928" y2="96" gradientUnits="userSpaceOnUse">
      <stop offset="0" stop-color="#059669"/>
      <stop offset="0.58" stop-color="#10B981"/>
      <stop offset="1" stop-color="#3B82F6"/>
    </linearGradient>
    <linearGradient id="leaf" x1="240" y1="800" x2="820" y2="220" gradientUnits="userSpaceOnUse">
      <stop offset="0" stop-color="#ECFDF5"/>
      <stop offset="1" stop-color="#BAE6FD"/>
    </linearGradient>
  </defs>
  <rect x="48" y="48" width="928" height="928" rx="288" fill="url(#bg)"/>
  <path d="M508.8 760V348.8" stroke="url(#leaf)" stroke-width="99.2" stroke-linecap="round"/>
  <path d="M508.8 348.8L361.6 496" stroke="url(#leaf)" stroke-width="99.2" stroke-linecap="round"/>
  <path d="M508.8 348.8L656 496" stroke="url(#leaf)" stroke-width="99.2" stroke-linecap="round"/>
  <path d="M368 672C464 664 544 584 544 486.4C451.2 496 380.8 572.8 368 672Z" fill="url(#leaf)" opacity="0.96"/>
  <path d="M672 352C584 363.2 516.8 433.6 508.8 524.8C601.6 515.2 662.4 444.8 672 352Z" fill="url(#leaf)" opacity="0.9"/>
  <path d="M702.4 681.6H776" stroke="#D1FAE5" stroke-width="70.4" stroke-linecap="round" opacity="0.76"/>
  <path d="M248 345.6H321.6" stroke="#D1FAE5" stroke-width="70.4" stroke-linecap="round" opacity="0.72"/>
</svg>
